# xmcd CD database file
#
# Track frame offsets:
#	150
#	31079
#	53075
#	71874
#	82056
#	107531
#	128981
#	151234
#	170861
#	189003
#	217090
#	238334
#
# Disc length: 3429 seconds
#
# Revision: 0
# Processed by: cddbd v1.4PL0 Copyright (c) Steve Scherf et al.
# Submitted via: CDex 1.50Beta7
#
DISCID=a80d630c
DTITLE=Tommy Castro - Gratitude
DYEAR=2003
DGENRE=Blues
TTITLE0=It Serves You Right To Suffer
TTITLE1=Bad Case Of Love
TTITLE2=Tulane
TTITLE3=I Wants To Be Loved
TTITLE4=Come Back Baby
TTITLE5=Lovey Dovey
TTITLE6=Everybody Wants To Go To Heaven
TTITLE7=I Feel That Old Feeling Coming On
TTITLE8=I Take What I Want
TTITLE9=When Me Left Eye Jumps
TTITLE10=44
TTITLE11=I Found A Love
EXTD=YEAR: 2003
EXTT0=
EXTT1=
EXTT2=
EXTT3=
EXTT4=
EXTT5=
EXTT6=
EXTT7=
EXTT8=
EXTT9=
EXTT10=
EXTT11=
PLAYORDER=
